<?xml version="1.0" encoding="utf-8"?>
<!-- Generator: Adobe Illustrator 25.3.1, SVG Export Plug-In . SVG Version: 6.00 Build 0)  -->
<svg version="1.1" id="Livello_1" xmlns="http://www.w3.org/2000/svg" xmlns:xlink="http://www.w3.org/1999/xlink" x="0px" y="0px"
	 viewBox="0 0 521.96 665.35" style="enable-background:new 0 0 521.96 665.35;" xml:space="preserve">
<style type="text/css">
	.st0{fill:#FF9E28;}
</style>
<g>
	<path class="st0" d="M415.82,224.67c-9.03-4.67-18-9.38-27.04-13.97c-4.65-2.36-2.85-6.11-2.31-9.6
		c1.49-9.69,3.76-19.32,4.42-29.07c1.86-27.51-5.41-52.88-20.58-75.73c-29.06-43.77-70.47-63.35-122.43-59.4
		c-49.88,3.79-95.71,41.59-110.55,89.38c-17.93,57.75,4.4,118.81,56.49,150.42c21.42,13,44.54,23.18,66.85,34.72
		c28.38,14.68,57.25,28.53,84.96,44.38c43.96,25.14,70.15,63.89,79.01,113.42c11.94,66.8-11.05,121.37-63.79,162.45
		c-34.33,26.74-74.65,37.3-118.42,32.61c-65.47-7.02-123.12-56.18-141.12-119.51c-9.36-32.95-8.27-65.42,1.52-97.91
		c1.86-6.17,3.68-6.67,9.34-3.61c8.46,4.58,17.07,8.88,25.68,13.33c-1.57,6.01-3.45,11.7-4.51,17.54
		c-10.11,55.95,14.43,108.71,64,137.97c29.72,17.55,61.45,20.07,94.59,12.93c55.55-11.96,88.21-59.34,96.99-104.73
		c10.24-52.94-16.69-106.9-61.45-132.8c-21.73-12.57-44.53-23.28-66.82-34.87c-29.38-15.28-59.57-29.22-87.91-46.23
		C129.79,280.6,104.86,241.73,97.03,192c-8.45-53.71,6.42-99.98,43.28-139.65C170.64,19.69,208.24,3.11,252.4,0.34
		c85.52-5.37,152.92,53.81,170.68,128.28c7.5,31.47,5.26,62.47-5.12,92.99c-0.21,0.63-0.49,1.24-0.81,1.82
		C417,223.71,416.68,223.89,415.82,224.67z"/>
	<path class="st0" d="M401.32,301.86c3.23-8.24,5.7-16.04,9.24-23.32c10.79-22.14,34.84-34.08,60.91-30.73
		c23.56,3.03,44.6,22.61,49.18,45.77c6.97,35.26-14.5,66.55-50.14,72.23c-11.29,1.8-22.51,0.46-33.06-4.91
		c-71.94-36.61-143.98-73.01-215.88-109.69c-24.72-12.61-43.1-30.98-50.78-58.57c-15.18-54.56,18.99-109,74.7-118.84
		c50.04-8.84,99.4,25.91,107.95,75.88c1.96,11.46,2.22,22.83-0.13,34.24c-1.33,6.49-2.84,7.26-8.7,4.3
		c-6.09-3.08-12.11-6.31-18.25-9.26c-5.6-2.69-7.85-6.79-7.81-13.12c0.21-36.28-32.63-57.59-56.83-57.57
		c-21.39,0.02-44.92,15.26-53,34.33c-9.34,22.02-4.55,46.86,11.81,63.91c9.2,9.58,21.31,14.03,32.66,19.85
		c46.5,23.83,93.04,47.59,139.58,71.36C395.56,299.13,398.39,300.44,401.32,301.86z M461.59,330.24c13.39-0.11,23.94-10.54,24-23.72
		c0.05-11.82-11.22-23.12-23.11-23.17c-11.88-0.05-22.79,11.14-22.77,23.36C439.73,319.21,450.08,330.34,461.59,330.24z"/>
	<path class="st0" d="M171.79,473.74c10.17,5.43,19.94,10.41,29.39,15.95c1.51,0.89,2.21,4.23,2.22,6.45
		c0.06,13.03,3.17,25.16,10.82,35.75c14.4,19.94,34.19,27.57,58.13,23.19c24.62-4.5,39.08-20.36,44.88-44.11
		c6.19-25.31-6.51-51.43-30.72-63.83c-41.61-21.32-83.35-42.39-125.02-63.59c-10.68-5.43-21.29-10.99-31.99-16.37
		c-2.77-1.39-5.76-2.36-9.3-3.79c-0.73,2.45-1.41,4.25-1.79,6.11c-5.53,27.56-29.15,47.6-57.15,48.43
		c-27.69,0.83-52.5-17.71-59.25-45.03c-5.86-23.72,1.13-44.22,19.17-60.01c17.92-15.68,39.39-19.24,61.14-9.64
		c23.25,10.27,45.6,22.59,68.27,34.14c48.33,24.62,96.57,49.43,144.95,73.95c17.76,9,34.32,19.29,44.85,36.91
		c35.61,59.58,2.01,131.25-63.64,142.91c-48.84,8.67-95.37-22.67-106.77-70.99c-3.35-14.18-3.94-28.31,0.19-42.43
		C170.5,476.65,171.03,475.62,171.79,473.74z M82.75,358.42c0.06-12.58-10.77-23.81-22.84-23.68c-12.04,0.12-23.27,11.33-23.14,23.1
		c0.13,12.35,10.75,23.53,22.52,23.69C71.55,381.7,82.69,370.73,82.75,358.42z"/>
</g>
</svg>
